<?xml version="1.0" encoding="UTF-8"?>
<svg xmlns="http://www.w3.org/2000/svg" xmlns:xlink="http://www.w3.org/1999/xlink" width="3000" height="3000" viewBox="0 0 3000 3000">
<path fill-rule="nonzero" fill="rgb(0%, 0%, 0%)" fill-opacity="1" d="M 1279.429688 779.058594 C 1251 778.101562 1226.25 798.371094 1221.589844 826.429688 L 1194.621094 988.691406 L 1168.53125 987.039062 C 1165.351562 992.628906 1162.550781 997.710938 1159.828125 1002.691406 C 1160.949219 1003.648438 1161.851562 1004.839844 1162.488281 1006.179688 C 1162.488281 1006.179688 1170.480469 1023.261719 1177.03125 1039.300781 C 1178.601562 1043.148438 1179.570312 1047.179688 1180.53125 1051.089844 C 1181.5 1055 1182.46875 1058.878906 1182.800781 1059.851562 C 1185.71875 1068.429688 1187.609375 1075.011719 1190.601562 1086.089844 C 1192.089844 1091.648438 1193.808594 1097.441406 1195.308594 1102.351562 L 1238.558594 1105.089844 C 1267.589844 1106.929688 1293.300781 1086.5 1298.070312 1057.808594 L 1333.441406 845.019531 C 1335.910156 830.191406 1332.378906 814.988281 1323.628906 802.75 C 1314.890625 790.519531 1301.640625 782.269531 1286.808594 779.800781 C 1284.371094 779.390625 1281.910156 779.148438 1279.429688 779.058594 Z M 994.1875 976.820312 C 966.578125 979.550781 945.003906 1001.871094 943.199219 1029.558594 C 941.222656 1060.808594 964.945312 1087.738281 996.195312 1089.71875 L 1172.691406 1100.910156 C 1171.800781 1097.871094 1170.898438 1094.71875 1170.070312 1091.609375 C 1167.121094 1080.671875 1165.429688 1074.808594 1162.671875 1066.710938 C 1161.558594 1063.449219 1160.808594 1059.910156 1159.890625 1056.191406 C 1158.96875 1052.460938 1157.878906 1048.640625 1157.351562 1047.339844 C 1154.101562 1039.378906 1150.429688 1031.058594 1147.640625 1024.851562 C 1140.820312 1037.089844 1132.648438 1051.171875 1120.058594 1071.351562 C 1116.949219 1076.328125 1110.390625 1077.839844 1105.410156 1074.738281 C 1100.429688 1071.628906 1098.921875 1065.070312 1102.019531 1060.089844 C 1124.648438 1023.839844 1132.890625 1007.339844 1144.96875 985.550781 L 1018.691406 977.539062 L 976.652344 1046.109375 C 973.582031 1051.109375 967.039062 1052.679688 962.035156 1049.621094 C 957.03125 1046.550781 955.460938 1040.011719 958.523438 1035 L 994.1875 976.820312 "/>
<path fill-rule="nonzero" fill="rgb(0%, 0%, 0%)" fill-opacity="1" d="M 902.902344 0 L 906.886719 19.960938 L 1212.5 481.441406 L 1294.019531 809.851562 L 1643.46875 1127.28125 L 2161.660156 1770.28125 L 2191.289062 2160.246094 L 2215.160156 2289.304688 L 2215.160156 2439.648438 L 2368.96875 2566.269531 L 2392.058594 2883.355469 L 2293.550781 2908.347656 L 2274.398438 3000 L 2967.21875 3000 C 2985.378906 3000 3000 2985.382812 3000 2967.222656 L 3000 32.78125 C 3000 14.621094 2985.378906 0 2967.21875 0 L 902.902344 0 "/>
<path fill-rule="nonzero" fill="rgb(0%, 0%, 0%)" fill-opacity="1" d="M 1030.550781 962.328125 C 1029.648438 962.410156 1028.75 962.5 1027.851562 962.589844 L 976.652344 1046.109375 C 973.582031 1051.109375 967.039062 1052.679688 962.035156 1049.621094 C 957.03125 1046.550781 955.460938 1040.011719 958.523438 1035 L 999.722656 967.800781 C 934.703125 987.449219 896.488281 1054.601562 912.800781 1120.53125 C 912.800781 1120.53125 919.929688 1149.269531 930.882812 1183.941406 C 941.835938 1218.601562 952.878906 1257.140625 980.902344 1301.628906 C 1008.929688 1346.121094 1038.921875 1372.71875 1065.449219 1397.570312 C 1091.980469 1422.421875 1114.828125 1441.261719 1114.828125 1441.261719 C 1169.148438 1486.121094 1249.550781 1478.449219 1294.410156 1424.128906 C 1302.398438 1414.441406 1308.921875 1403.621094 1313.761719 1392.03125 L 1267.5 1422.878906 C 1265.160156 1424.449219 1262.28125 1425.019531 1259.519531 1424.460938 C 1256.75 1423.910156 1254.320312 1422.28125 1252.761719 1419.941406 C 1251.191406 1417.589844 1250.621094 1414.71875 1251.179688 1411.949219 C 1251.730469 1409.191406 1253.359375 1406.761719 1255.699219 1405.191406 L 1322.359375 1360.730469 C 1328.558594 1316.800781 1311.488281 1272.800781 1277.289062 1244.550781 C 1277.289062 1244.550781 1271.148438 1239.421875 1262.339844 1231.699219 L 1215.070312 1264.671875 C 1210.261719 1268.03125 1203.628906 1266.851562 1200.269531 1262.039062 C 1196.910156 1257.21875 1198.089844 1250.601562 1202.910156 1247.238281 L 1246.070312 1217.128906 C 1244.03125 1215.25 1241.960938 1213.351562 1239.839844 1211.359375 C 1219.558594 1192.371094 1195.929688 1164.339844 1196.761719 1165.648438 C 1197.589844 1166.96875 1182.519531 1133.558594 1174.148438 1107.070312 C 1165.78125 1080.578125 1160.378906 1058.960938 1160.378906 1058.960938 C 1157.480469 1047.410156 1152.96875 1036.320312 1146.988281 1026.011719 C 1140.300781 1037.96875 1132.261719 1051.800781 1120.058594 1071.351562 C 1116.949219 1076.328125 1110.390625 1077.839844 1105.410156 1074.738281 C 1100.429688 1071.628906 1098.921875 1065.070312 1102.019531 1060.089844 C 1117.019531 1036.070312 1125.671875 1020.75 1133.328125 1006.789062 C 1113.421875 983.519531 1085.800781 968.191406 1055.519531 963.601562 C 1047.261719 962.359375 1038.890625 961.941406 1030.550781 962.328125 "/>
<path fill-rule="nonzero" fill="rgb(0%, 0%, 0%)" fill-opacity="1" d="M 1017.308594 722.519531 C 954.914062 722.519531 904.332031 773.109375 904.332031 835.511719 C 904.382812 895.691406 951.59375 945.269531 1011.699219 948.261719 L 1071.371094 850.910156 L 1091.351562 750.171875 C 1070.800781 732.339844 1044.519531 722.519531 1017.308594 722.519531 Z M 1109.148438 769.710938 L 1091.851562 856.921875 C 1091.609375 858.148438 1091.148438 859.328125 1090.488281 860.398438 L 1037.660156 946.578125 C 1091.300781 936.761719 1130.269531 890.03125 1130.300781 835.511719 C 1130.289062 811.898438 1122.898438 788.890625 1109.148438 769.710938 "/>
<path fill-rule="nonzero" fill="rgb(0%, 0%, 0%)" fill-opacity="1" d="M 1210.691406 1322.78125 C 1185.378906 1322.988281 1162.101562 1336.691406 1149.628906 1358.730469 C 1130.339844 1392.78125 1142.320312 1436.019531 1176.378906 1455.308594 L 1378.441406 1569.710938 L 1392.738281 1657.660156 L 1411.839844 1489.148438 L 1412.371094 1426.050781 L 1331.441406 1380.230469 L 1267.5 1422.878906 C 1265.160156 1424.449219 1262.28125 1425.019531 1259.519531 1424.460938 C 1256.75 1423.910156 1254.320312 1422.28125 1252.761719 1419.941406 C 1251.191406 1417.589844 1250.621094 1414.71875 1251.179688 1411.949219 C 1251.730469 1409.191406 1253.359375 1406.761719 1255.699219 1405.191406 L 1310.71875 1368.488281 L 1246.210938 1331.96875 C 1235.378906 1325.839844 1223.128906 1322.671875 1210.691406 1322.78125 Z M 1422.25 1431.640625 L 1421.761719 1489.488281 C 1421.761719 1489.660156 1421.75 1489.828125 1421.730469 1490.011719 L 1398.628906 1693.828125 L 1405.359375 1735.179688 L 1433.058594 1490.738281 C 1433.089844 1490.539062 1433.089844 1490.339844 1433.101562 1490.140625 L 1433.539062 1438.03125 Z M 1443.410156 1443.621094 L 1443.019531 1490.21875 L 1443.019531 1490.230469 C 1443.011719 1490.769531 1442.980469 1491.300781 1442.921875 1491.839844 C 1442.921875 1491.851562 1442.921875 1491.851562 1442.921875 1491.851562 L 1411.238281 1771.351562 L 1418.988281 1819 C 1425.269531 1857.628906 1461.679688 1883.851562 1500.308594 1877.558594 C 1518.859375 1874.550781 1535.460938 1864.28125 1546.441406 1849.03125 C 1557.429688 1833.78125 1561.898438 1814.789062 1558.878906 1796.238281 L 1512.878906 1513.398438 C 1509.421875 1492.199219 1496.539062 1473.699219 1477.839844 1463.109375 L 1443.410156 1443.621094 "/>
<path fill-rule="nonzero" fill="rgb(0%, 0%, 0%)" fill-opacity="1" d="M 1203.640625 552.320312 C 1175.789062 551.011719 1151.109375 570.148438 1145.460938 597.460938 L 1094.550781 843.320312 L 1091.851562 856.921875 C 1091.609375 858.148438 1091.148438 859.328125 1090.488281 860.398438 L 976.652344 1046.109375 C 975.894531 1047.28125 974.917969 1048.300781 973.769531 1049.089844 L 968.441406 1057.808594 C 952.113281 1084.53125 960.535156 1119.421875 987.25 1135.75 C 1000.078125 1143.589844 1015.5 1146.011719 1030.121094 1142.480469 C 1044.730469 1138.949219 1057.351562 1129.761719 1065.191406 1116.929688 L 1193.890625 906.328125 C 1197.300781 900.769531 1199.710938 894.648438 1201.039062 888.261719 L 1256.488281 620.441406 C 1262.839844 589.789062 1243.128906 559.789062 1212.46875 553.441406 C 1209.558594 552.828125 1206.609375 552.460938 1203.640625 552.320312 "/>
<path fill-rule="nonzero" fill="rgb(0%, 0%, 0%)" fill-opacity="1" d="M 1037.050781 1432.570312 C 1033.03125 1426.441406 1031.621094 1418.960938 1033.109375 1411.789062 C 1034.609375 1404.609375 1038.890625 1398.328125 1045.03125 1394.308594 L 1058.148438 1385.71875 C 1064.28125 1381.710938 1071.761719 1380.289062 1078.929688 1381.789062 C 1086.101562 1383.28125 1092.390625 1387.570312 1096.398438 1393.699219 L 1142.589844 1464.238281 C 1150.949219 1477 1147.378906 1494.128906 1134.609375 1502.488281 L 1121.488281 1511.078125 C 1108.71875 1519.441406 1091.589844 1515.871094 1083.230469 1503.101562 L 1037.050781 1432.570312 "/>
<path fill-rule="nonzero" fill="rgb(0%, 0%, 0%)" fill-opacity="1" d="M 1604.761719 1010.160156 C 1602 1009.550781 1599.121094 1010.070312 1596.75 1011.589844 L 1424.738281 1121.640625 C 1421.710938 1123.578125 1419.871094 1126.910156 1419.839844 1130.5 L 1416.800781 1489.449219 L 1381.570312 1800.238281 C 1381.511719 1800.839844 1381.488281 1801.441406 1381.519531 1802.039062 L 1447.398438 2963.460938 C 1447.558594 2966.277344 1448.828125 2968.914062 1450.929688 2970.789062 C 1453.039062 2972.667969 1455.800781 2973.632812 1458.609375 2973.472656 C 1461.429688 2973.3125 1464.058594 2972.039062 1465.941406 2969.9375 C 1467.820312 2967.832031 1468.78125 2965.070312 1468.621094 2962.253906 L 1402.800781 1801.738281 L 1437.988281 1491.289062 C 1438.03125 1490.921875 1438.050781 1490.550781 1438.058594 1490.179688 L 1441.050781 1136.441406 L 1608.199219 1029.5 C 1610.578125 1027.980469 1612.25 1025.578125 1612.859375 1022.820312 C 1613.460938 1020.070312 1612.949219 1017.191406 1611.429688 1014.808594 C 1609.910156 1012.441406 1607.511719 1010.761719 1604.761719 1010.160156 "/>
<path fill-rule="nonzero" fill="rgb(0%, 0%, 0%)" fill-opacity="1" d="M 1493.570312 1082.621094 C 1477.761719 1082.058594 1462.210938 1086.808594 1449.410156 1096.109375 L 1205.609375 1273.210938 C 1190.398438 1284.261719 1180.210938 1300.890625 1177.261719 1319.449219 C 1174.320312 1338.019531 1178.871094 1356.988281 1189.921875 1372.199219 C 1206.988281 1395.648438 1236.640625 1406.339844 1264.75 1399.160156 L 1335.558594 1351.929688 C 1337.121094 1350.898438 1338.921875 1350.300781 1340.789062 1350.191406 L 1493.710938 1239.109375 L 1649.691406 1338.28125 C 1682.71875 1359.28125 1726.519531 1349.53125 1747.511719 1316.5 C 1768.511719 1283.46875 1758.761719 1239.679688 1725.730469 1218.679688 L 1529.078125 1093.640625 C 1521.121094 1088.578125 1512.21875 1085.160156 1502.921875 1083.578125 C 1499.820312 1083.050781 1496.699219 1082.730469 1493.570312 1082.621094 "/>
</svg>
