<?xml version="1.0" encoding="utf-8"?>
<svg xmlns="http://www.w3.org/2000/svg">
	<defs>
		<symbol id="icon-map" viewBox="0 0 350 490">
			<g>
			<path fill="#4D4D4D" d="M190.3,292l-18.7,8.6v99l46.9-18.6v-44.9l-2.1-2.4C215.6,332.8,200.4,314.8,190.3,292z"/>
			<path fill="#4D4D4D" d="M161.4,294.2l25.1-11.6c-0.8-2.2-1.5-4.4-2.1-6.7c-0.5-1.7-0.8-3.4-1.1-5.2l-33.4,15.5v142.8l68.6-25.8V392
		l-57.1,22.6V294.2z"/>
			<polygon fill="#4D4D4D" points="359.6,285.4 310.6,307.7 310.6,407.9 359.6,388.9 	"/>
			<polygon fill="#4D4D4D" points="310.6,286.3 310.6,296.5 369.8,269.7 369.8,395.9 310.6,418.8 310.6,429.1 379.1,403.3
		379.1,254.5 	"/>
			<path fill="#4D4D4D" d="M264.6,275.8c-0.5,2-1.1,4-1.8,6l35,15v-10.5l-32.3-14.9C265.4,272.8,265.1,274.3,264.6,275.8z"/>
			<path fill="#4D4D4D" d="M231.7,334l-2.3,2.6v44.1l68.6,27.3V307.9l-38.7-16.6C248.9,314.7,232.5,333,231.7,334z"/>
			<polygon fill="#4D4D4D" points="229.3,403.3 297.9,429.1 297.9,418.8 229.3,391.6 	"/>
			<path fill="#4D4D4D" d="M254.8,273.2c0.6-2.1,0.9-4.3,1-6.4c0.9-17.1-12.9-32.3-30.9-32.3h-0.8c-17.8,0-31.7,14.9-31,31.8
		c0.1,2.3,0.4,4.6,1.1,7c5.3,19,17.2,37.1,24.3,46.7c3.4,4.6,5.7,7.2,5.7,7.2s2.1-2.3,5.2-6.3C236.6,311.5,249.5,293,254.8,273.2z
		 M224.5,280.8c-2.1,0-4.1-0.4-6-1c-7-2.5-12.1-9.2-12.1-17.1c0-0.9,0.1-1.8,0.2-2.7c1.3-8.7,8.8-15.3,17.9-15.3
		c9.3,0,16.9,6.9,18,15.9c0.1,0.7,0.1,1.4,0.1,2.2c0,8.3-5.6,15.3-13.3,17.4C227.8,280.6,226.2,280.8,224.5,280.8z"/>
			</g>
		</symbol>

		<symbol id="icon-hardware" viewBox="700 0 350 490">
			<g>
				<path fill="#4D4D4D" d="M890.2,252.1c-7-8.8-17.5-13.9-28.9-13.9h-34.8c-11.4,0-22,5.1-29,14.1c-7,9-9.5,20.4-6.8,31.5l21.9,89.7
		l-3.3,10.5c-3.5,11.3-1.5,23.3,5.5,32.8c7,9.6,17.8,15,29.7,15c11.9,0,22.7-5.5,29.7-15c7-9.6,9-21.5,5.5-32.8l-3.3-10.6l3.4-14.6
		l-18.4-4.3l-4.5,19.6l4.8,15.5c1.7,5.5,0.8,11.4-2.7,16c-3.4,4.7-8.7,7.3-14.5,7.3c-5.8,0-11.1-2.7-14.5-7.3
		c-3.4-4.7-4.4-10.5-2.7-16l4.9-15.5L809,279.3c-1.3-5.4-0.1-11,3.3-15.4c3.4-4.4,8.6-6.9,14.2-6.9h34.8c5.5,0,10.7,2.5,14.1,6.8
		c3.4,4.3,4.7,9.9,3.4,15.3l-3.6,15.7l18.4,4.3l3.6-15.7C899.8,272.3,897.2,260.9,890.2,252.1z"/>
				<path fill="#4D4D4D" d="M889.2,317.2c0.2-0.7,0.2-1.4,0.2-2.1c0-4.1-2.9-7.9-7.1-8.9c-4.9-1.1-9.8,1.9-11,6.8l-3.7,15.9l0,0
		l-7.2-1.7l-4.1,17.7l31.5,7.4l4.1-17.7l-6.5-1.5L889.2,317.2z M880.1,311.4c2.6,0,4.7,2.1,4.7,4.7c0,2.6-2.1,4.7-4.7,4.7
		s-4.7-2.1-4.7-4.7C875.4,313.5,877.5,311.4,880.1,311.4z"/>
			</g>
		</symbol>

	</defs>
</svg>