<?xml version="1.0" encoding="UTF-8"?>
<svg xmlns="http://www.w3.org/2000/svg" xmlns:xlink="http://www.w3.org/1999/xlink" width="2470" height="3002" viewBox="0 0 2470 3002">
<path fill-rule="nonzero" fill="rgb(5.880737%, 5.880737%, 5.880737%)" fill-opacity="1" d="M 110.007812 172.878906 L 2359.988281 172.878906 C 2420.148438 172.878906 2469.371094 222.140625 2469.371094 282.261719 L 2469.371094 2891.628906 C 2469.371094 2951.789062 2420.101562 3001 2359.988281 3001 L 110.007812 3001 C 49.847656 3001 0.628906 2951.738281 0.628906 2891.628906 L 0.628906 282.261719 C 0.628906 222.101562 49.890625 172.878906 110.007812 172.878906 Z M 2359.988281 266.640625 L 110.007812 266.640625 C 101.378906 266.640625 94.390625 273.609375 94.390625 282.261719 L 94.390625 2891.628906 C 94.390625 2900.25 101.363281 2907.242188 110.007812 2907.242188 L 2359.988281 2907.242188 C 2368.609375 2907.242188 2375.609375 2900.277344 2375.609375 2891.628906 L 2375.609375 282.261719 C 2375.609375 273.628906 2368.640625 266.640625 2359.988281 266.640625 "/>
<path fill-rule="nonzero" fill="rgb(5.880737%, 5.880737%, 5.880737%)" fill-opacity="1" d="M 492.824219 47.878906 C 492.824219 21.988281 471.835938 1 445.945312 1 C 420.054688 1 399.066406 21.988281 399.066406 47.878906 L 399.066406 391.628906 C 399.066406 417.519531 420.054688 438.511719 445.945312 438.511719 C 471.835938 438.511719 492.824219 417.519531 492.824219 391.628906 L 492.824219 47.878906 "/>
<path fill-rule="nonzero" fill="rgb(5.880737%, 5.880737%, 5.880737%)" fill-opacity="1" d="M 887.347656 47.878906 C 887.347656 21.988281 866.359375 1 840.46875 1 C 814.578125 1 793.589844 21.988281 793.589844 47.878906 L 793.589844 391.628906 C 793.589844 417.519531 814.578125 438.511719 840.46875 438.511719 C 866.359375 438.511719 887.347656 417.519531 887.347656 391.628906 L 887.347656 47.878906 "/>
<path fill-rule="nonzero" fill="rgb(5.880737%, 5.880737%, 5.880737%)" fill-opacity="1" d="M 1281.878906 47.878906 C 1281.878906 21.988281 1260.890625 1 1235 1 C 1209.109375 1 1188.121094 21.988281 1188.121094 47.878906 L 1188.121094 391.628906 C 1188.121094 417.519531 1209.109375 438.511719 1235 438.511719 C 1260.890625 438.511719 1281.878906 417.519531 1281.878906 391.628906 L 1281.878906 47.878906 "/>
<path fill-rule="nonzero" fill="rgb(5.880737%, 5.880737%, 5.880737%)" fill-opacity="1" d="M 1676.410156 47.878906 C 1676.410156 21.988281 1655.421875 1 1629.53125 1 C 1603.640625 1 1582.648438 21.988281 1582.648438 47.878906 L 1582.648438 391.628906 C 1582.648438 417.519531 1603.640625 438.511719 1629.53125 438.511719 C 1655.421875 438.511719 1676.410156 417.519531 1676.410156 391.628906 L 1676.410156 47.878906 "/>
<path fill-rule="nonzero" fill="rgb(5.880737%, 5.880737%, 5.880737%)" fill-opacity="1" d="M 2070.941406 47.878906 C 2070.941406 21.988281 2049.949219 1 2024.058594 1 C 1998.171875 1 1977.179688 21.988281 1977.179688 47.878906 L 1977.179688 391.628906 C 1977.179688 417.519531 1998.171875 438.511719 2024.058594 438.511719 C 2049.949219 438.511719 2070.941406 417.519531 2070.941406 391.628906 L 2070.941406 47.878906 "/>
<path fill-rule="nonzero" fill="rgb(5.880737%, 5.880737%, 5.880737%)" fill-opacity="1" d="M 1977.179688 897.46875 C 2003.070312 897.46875 2024.058594 876.480469 2024.058594 850.589844 C 2024.058594 824.699219 2003.070312 803.710938 1977.179688 803.710938 L 1110 803.710938 C 1084.109375 803.710938 1063.121094 824.699219 1063.121094 850.589844 C 1063.121094 876.480469 1084.109375 897.46875 1110 897.46875 L 1977.179688 897.46875 "/>
<path fill-rule="nonzero" fill="rgb(5.880737%, 5.880737%, 5.880737%)" fill-opacity="1" d="M 1977.179688 1419.609375 C 2003.070312 1419.609375 2024.058594 1398.621094 2024.058594 1372.738281 C 2024.058594 1346.851562 2003.070312 1325.859375 1977.179688 1325.859375 L 492.824219 1325.859375 C 466.933594 1325.859375 445.945312 1346.851562 445.945312 1372.738281 C 445.945312 1398.621094 466.933594 1419.609375 492.824219 1419.609375 L 1977.179688 1419.609375 "/>
<path fill-rule="nonzero" fill="rgb(5.880737%, 5.880737%, 5.880737%)" fill-opacity="1" d="M 1977.179688 1941.761719 C 2003.070312 1941.761719 2024.058594 1920.769531 2024.058594 1894.878906 C 2024.058594 1868.988281 2003.070312 1848 1977.179688 1848 L 492.824219 1848 C 466.933594 1848 445.945312 1868.988281 445.945312 1894.878906 C 445.945312 1920.769531 466.933594 1941.761719 492.824219 1941.761719 L 1977.179688 1941.761719 "/>
<path fill-rule="nonzero" fill="rgb(5.880737%, 5.880737%, 5.880737%)" fill-opacity="1" d="M 1360 2463.90625 C 1385.890625 2463.90625 1406.878906 2442.914062 1406.878906 2417.027344 C 1406.878906 2391.136719 1385.890625 2370.148438 1360 2370.148438 L 492.824219 2370.148438 C 466.933594 2370.148438 445.945312 2391.136719 445.945312 2417.027344 C 445.945312 2442.914062 466.933594 2463.90625 492.824219 2463.90625 L 1360 2463.90625 "/>
<path fill-rule="evenodd" fill="rgb(92.576599%, 92.576599%, 92.576599%)" fill-opacity="1" d="M 492.824219 1325.859375 L 1977.179688 1325.859375 C 2003.070312 1325.859375 2024.058594 1346.851562 2024.058594 1372.738281 C 2024.058594 1398.621094 2003.070312 1419.609375 1977.179688 1419.609375 L 492.824219 1419.609375 C 466.933594 1419.609375 445.945312 1398.621094 445.945312 1372.738281 C 445.945312 1346.851562 466.933594 1325.859375 492.824219 1325.859375 Z M 492.824219 1848 L 1977.179688 1848 C 2003.070312 1848 2024.058594 1868.988281 2024.058594 1894.878906 C 2024.058594 1920.769531 2003.070312 1941.761719 1977.179688 1941.761719 L 492.824219 1941.761719 C 466.933594 1941.761719 445.945312 1920.769531 445.945312 1894.878906 C 445.945312 1868.988281 466.933594 1848 492.824219 1848 Z M 492.824219 2370.148438 L 1360 2370.148438 C 1385.890625 2370.148438 1406.878906 2391.136719 1406.878906 2417.027344 C 1406.878906 2442.914062 1385.890625 2463.90625 1360 2463.90625 L 492.824219 2463.90625 C 466.933594 2463.90625 445.945312 2442.914062 445.945312 2417.027344 C 445.945312 2391.136719 466.933594 2370.148438 492.824219 2370.148438 Z M 1188.121094 266.640625 L 887.347656 266.640625 L 887.347656 391.628906 C 887.347656 417.519531 866.359375 438.511719 840.46875 438.511719 C 814.578125 438.511719 793.589844 417.519531 793.589844 391.628906 L 793.589844 266.640625 L 492.824219 266.640625 L 492.824219 391.628906 C 492.824219 417.519531 471.835938 438.511719 445.945312 438.511719 C 420.054688 438.511719 399.066406 417.519531 399.066406 391.628906 L 399.066406 266.640625 L 110.007812 266.640625 C 101.378906 266.640625 94.390625 273.609375 94.390625 282.261719 L 94.390625 2891.628906 C 94.390625 2900.25 101.363281 2907.242188 110.007812 2907.242188 L 2359.988281 2907.242188 C 2368.609375 2907.242188 2375.609375 2900.277344 2375.609375 2891.628906 L 2375.609375 282.261719 C 2375.609375 273.628906 2368.640625 266.640625 2359.988281 266.640625 L 2070.941406 266.640625 L 2070.941406 391.628906 C 2070.941406 417.519531 2049.949219 438.511719 2024.058594 438.511719 C 1998.171875 438.511719 1977.179688 417.519531 1977.179688 391.628906 L 1977.179688 266.640625 L 1676.410156 266.640625 L 1676.410156 391.628906 C 1676.410156 417.519531 1655.421875 438.511719 1629.53125 438.511719 C 1603.640625 438.511719 1582.648438 417.519531 1582.648438 391.628906 L 1582.648438 266.640625 L 1281.878906 266.640625 L 1281.878906 391.628906 C 1281.878906 417.519531 1260.890625 438.511719 1235 438.511719 C 1209.109375 438.511719 1188.121094 417.519531 1188.121094 391.628906 Z M 1977.179688 897.46875 L 1110 897.46875 C 1084.109375 897.46875 1063.121094 876.480469 1063.121094 850.589844 C 1063.121094 824.699219 1084.109375 803.710938 1110 803.710938 L 1977.179688 803.710938 C 2003.070312 803.710938 2024.058594 824.699219 2024.058594 850.589844 C 2024.058594 876.480469 2003.070312 897.46875 1977.179688 897.46875 "/>
</svg>
