<?xml version="1.0" encoding="utf-8"?>
<!-- Generator: Adobe Illustrator 18.0.0, SVG Export Plug-In . SVG Version: 6.00 Build 0)  -->
<!DOCTYPE svg PUBLIC "-//W3C//DTD SVG 1.1//EN" "http://www.w3.org/Graphics/SVG/1.1/DTD/svg11.dtd">
<svg version="1.1" id="Layer_1" xmlns="http://www.w3.org/2000/svg" xmlns:xlink="http://www.w3.org/1999/xlink" x="0px" y="0px"
	 width="1400px" height="980px" viewBox="0 0 1400 980" enable-background="new 0 0 1400 980" xml:space="preserve">
<g>
	<path fill="#4D4D4D" d="M190.3,292l-18.7,8.6v99l46.9-18.6v-44.9l-2.1-2.4C215.6,332.8,200.4,314.8,190.3,292z"/>
	<path fill="#4D4D4D" d="M161.4,294.2l25.1-11.6c-0.8-2.2-1.5-4.4-2.1-6.7c-0.5-1.7-0.8-3.4-1.1-5.2l-33.4,15.5v142.8l68.6-25.8V392
		l-57.1,22.6V294.2z"/>
	<polygon fill="#4D4D4D" points="359.6,285.4 310.6,307.7 310.6,407.9 359.6,388.9 	"/>
	<polygon fill="#4D4D4D" points="310.6,286.3 310.6,296.5 369.8,269.7 369.8,395.9 310.6,418.8 310.6,429.1 379.1,403.3 
		379.1,254.5 	"/>
	<path fill="#4D4D4D" d="M264.6,275.8c-0.5,2-1.1,4-1.8,6l35,15v-10.5l-32.3-14.9C265.4,272.8,265.1,274.3,264.6,275.8z"/>
	<path fill="#4D4D4D" d="M231.7,334l-2.3,2.6v44.1l68.6,27.3V307.9l-38.7-16.6C248.9,314.7,232.5,333,231.7,334z"/>
	<polygon fill="#4D4D4D" points="229.3,403.3 297.9,429.1 297.9,418.8 229.3,391.6 	"/>
	<path fill="#4D4D4D" d="M254.8,273.2c0.6-2.1,0.9-4.3,1-6.4c0.9-17.1-12.9-32.3-30.9-32.3h-0.8c-17.8,0-31.7,14.9-31,31.8
		c0.1,2.3,0.4,4.6,1.1,7c5.3,19,17.2,37.1,24.3,46.7c3.4,4.6,5.7,7.2,5.7,7.2s2.1-2.3,5.2-6.3C236.6,311.5,249.5,293,254.8,273.2z
		 M224.5,280.8c-2.1,0-4.1-0.4-6-1c-7-2.5-12.1-9.2-12.1-17.1c0-0.9,0.1-1.8,0.2-2.7c1.3-8.7,8.8-15.3,17.9-15.3
		c9.3,0,16.9,6.9,18,15.9c0.1,0.7,0.1,1.4,0.1,2.2c0,8.3-5.6,15.3-13.3,17.4C227.8,280.6,226.2,280.8,224.5,280.8z"/>
</g>
<path fill="#4D4D4D" d="M1224.2,255.3H997v50.7h103.7c-5.2,25.6-17.3,67.2-42.7,84.2c0,0,0,0,0,0h-52.8V420h74.2v-29.8h-1.6
	c0,0,0,0,0,0c17.2-18.6,27.2-46.4,32.8-68.6c5.6,22.2,15.5,50,32.8,68.6c0,0,0,0,0,0h-1.8V420h74.2v-29.8h-52.6c0,0,0,0,0,0
	c-25.4-16.9-37.5-58.5-42.7-84.2h103.7V255.3z M1083.1,288h-77.9v-18h77.9V288z M1128.7,284.9c0,3.9-3.2,7.1-7.1,7.1h-3.5h-14.9
	h-3.5c-3.9,0-7.1-3.2-7.1-7.1v-11.8c0-3.9,3.2-7.1,7.1-7.1h22c3.9,0,7.1,3.2,7.1,7.1V284.9z M1215.8,288h-77.9v-18h77.9V288z"/>
<g>
	<rect x="493.3" y="274.8" fill="#4D4D4D" width="83.5" height="117.5"/>
	<path fill="#4D4D4D" d="M493.3,411.6c0,6.9,5.6,12.6,12.6,12.6h58.3c6.9,0,12.6-5.6,12.6-12.6v-12.4l-83.5,0V411.6z"/>
	<path fill="#4D4D4D" d="M592.8,349.5v50.6c0,13.3,10.8,24.1,24.1,24.1l27.2,0c13.3,0,24.1-10.8,24.1-24.1v-50.6L592.8,349.5z"/>
	<polygon fill="#4D4D4D" points="561.2,240.8 523.7,240.8 562.2,246.9 	"/>
	<polygon fill="#4D4D4D" points="562.8,250.4 508.8,242.2 508,249 564.2,257.3 	"/>
	<polygon fill="#4D4D4D" points="506.1,263.1 505.7,266.6 530.8,266.6 	"/>
	<polygon fill="#4D4D4D" points="564.6,261.5 507.4,253.1 506.7,258.9 565.7,267.3 	"/>
	<path fill="#4D4D4D" d="M632.4,327.9c0.3,0.8,0.7,1.5,1.1,2.2c0.4,0.7,0.8,1.3,1.3,1.9c0.4,0.6,0.9,1.1,1.3,1.6
		c0.4,0.5,0.9,0.9,1.3,1.3c0.9,0.8,1.7,1.3,2.4,1.7c1.4,0.8,2.3,1.1,2.3,1.1s-0.5-0.8-1.2-2.1c-0.4-0.7-0.7-1.5-1.1-2.4
		c-0.4-0.9-0.8-2-1.1-3.1c-0.3-1.1-0.6-2.4-0.7-3.6c-0.1-0.6-0.1-1.3-0.1-1.9c-0.1-0.6,0-1.3,0.1-2c0-0.7,0.2-1.3,0.3-2
		c0.1-0.3,0.1-0.7,0.2-1l0.3-1c0.3-1.3,0.9-2.7,1.5-4l1-2l0.6-1.3l0.5-1.2l0.3-0.6l0.3-0.7c0.2-0.5,0.3-1,0.5-1.4
		c0.4-1,0.5-1.9,0.7-2.8c0.7-3.6,0.5-7.1-0.2-9.9c-0.7-2.8-1.9-4.9-2.8-6.3c-0.9-1.4-1.7-2-1.7-2s0,1-0.1,2.5
		c-0.1,0.8-0.1,1.7-0.2,2.7c-0.1,1-0.3,2.1-0.5,3.3c-0.1,0.6-0.3,1.2-0.4,1.8c-0.1,0.6-0.3,1.2-0.5,1.9c-0.2,0.6-0.4,1.3-0.6,1.9
		c-0.3,0.6-0.4,1.3-0.7,1.9c-0.3,0.6-0.5,1.3-0.8,1.9l-0.4,0.9c-0.1,0.1-0.1,0.3-0.2,0.5l-0.3,0.6l-0.6,1.1l-0.3,0.6l0,0.1l0,0
		c-0.1,0.2,0.1-0.2,0.1-0.1l0,0l-0.1,0.2l-0.2,0.3l-1.2,2.7c-0.4,0.9-0.6,1.9-0.9,2.8c-0.1,0.5-0.3,0.9-0.4,1.4l-0.2,1.5l-0.2,1.5
		c0,0.5,0,1,0,1.5c0,1,0,2,0.1,2.9C631.2,324.5,631.7,326.3,632.4,327.9z"/>
	<path fill="#4D4D4D" d="M613.6,331.4c0.5,1.1,1.2,2,1.9,2.8c0.7,0.8,1.4,1.4,2,1.8c0.6,0.5,1.3,0.8,1.8,1c1,0.5,1.7,0.5,1.7,0.5
		s-0.3-0.6-0.6-1.6c-0.3-1-0.7-2.4-0.9-3.9c-0.1-0.7-0.2-1.5-0.1-2.3c0-0.4,0-0.8,0.1-1.2c0-0.4,0.1-0.8,0.2-1.2
		c0-0.4,0.2-0.8,0.3-1.2l0.1-0.6l0.2-0.6c0.2-0.8,0.6-1.6,1-2.4l0.6-1.2l0.2-0.5l0.2-0.4l0.4-0.8l0.2-0.4l0.2-0.5l0.4-1
		c0.3-0.7,0.3-1.3,0.5-2c0.4-2.6,0.1-5-0.5-7c-0.7-1.9-1.6-3.3-2.5-4.2c-0.8-0.9-1.4-1.2-1.4-1.2s-0.1,0.6-0.4,1.7
		c-0.1,0.5-0.3,1.1-0.5,1.8c-0.2,0.7-0.4,1.4-0.6,2.1c-0.1,0.4-0.3,0.7-0.4,1.1c-0.1,0.4-0.3,0.8-0.4,1.1c-0.2,0.4-0.3,0.8-0.5,1.2
		c-0.2,0.4-0.3,0.8-0.5,1.2c-0.2,0.4-0.4,0.8-0.5,1.1c-0.2,0.4-0.4,0.7-0.6,1.1l-0.4,0.7l-0.2,0.3l0,0l-0.1,0.1l-0.1,0.2l-0.9,1.9
		c-0.3,0.6-0.4,1.3-0.6,2c-0.2,0.7-0.3,1.4-0.4,2.1c-0.1,0.7-0.2,1.4-0.1,2.1c0,0.7,0,1.4,0.2,2.1
		C612.6,329.1,613,330.4,613.6,331.4z"/>
	<path fill="#4D4D4D" d="M614.4,317.4C614.4,317.4,614.4,317.4,614.4,317.4L614.4,317.4L614.4,317.4z"/>
	<path fill="#4D4D4D" d="M614.4,317.3L614.4,317.3l0.1-0.1l0,0C614.5,317.2,614.5,317.3,614.4,317.3z"/>
</g>
<g>
	<path fill="#4D4D4D" d="M890.2,252.1c-7-8.8-17.5-13.9-28.9-13.9h-34.8c-11.4,0-22,5.1-29,14.1c-7,9-9.5,20.4-6.8,31.5l21.9,89.7
		l-3.3,10.5c-3.5,11.3-1.5,23.3,5.5,32.8c7,9.6,17.8,15,29.7,15c11.9,0,22.7-5.5,29.7-15c7-9.6,9-21.5,5.5-32.8l-3.3-10.6l3.4-14.6
		l-18.4-4.3l-4.5,19.6l4.8,15.5c1.7,5.5,0.8,11.4-2.7,16c-3.4,4.7-8.7,7.3-14.5,7.3c-5.8,0-11.1-2.7-14.5-7.3
		c-3.4-4.7-4.4-10.5-2.7-16l4.9-15.5L809,279.3c-1.3-5.4-0.1-11,3.3-15.4c3.4-4.4,8.6-6.9,14.2-6.9h34.8c5.5,0,10.7,2.5,14.1,6.8
		c3.4,4.3,4.7,9.9,3.4,15.3l-3.6,15.7l18.4,4.3l3.6-15.7C899.8,272.3,897.2,260.9,890.2,252.1z"/>
	<path fill="#4D4D4D" d="M889.2,317.2c0.2-0.7,0.2-1.4,0.2-2.1c0-4.1-2.9-7.9-7.1-8.9c-4.9-1.1-9.8,1.9-11,6.8l-3.7,15.9l0,0
		l-7.2-1.7l-4.1,17.7l31.5,7.4l4.1-17.7l-6.5-1.5L889.2,317.2z M880.1,311.4c2.6,0,4.7,2.1,4.7,4.7c0,2.6-2.1,4.7-4.7,4.7
		s-4.7-2.1-4.7-4.7C875.4,313.5,877.5,311.4,880.1,311.4z"/>
</g>
<g>
	<g>
		<path fill="#4D4D4D" d="M331,579.5H180.8c-11.9,0-21.5,9.7-21.5,21.6V724c0,11.9,9.6,21.6,21.5,21.6H331
			c11.9,0,21.5-9.7,21.5-21.6V601.1C352.5,589.2,342.9,579.5,331,579.5z M302.5,679.2h-29.9v29.9h-33.3v-29.9h-29.9v-33.3h29.9V616
			h33.3v29.9h29.9V679.2z"/>
	</g>
	<g>
		<path fill="#4D4D4D" d="M305.1,570.2h-17.4v-15.3c0-11.8-9.6-21.3-21.3-21.3h-23.5c-11.8,0-21.3,9.6-21.3,21.3v15.3h-17.4v-15.3
			c0-21.4,17.4-38.7,38.7-38.7h23.5c21.4,0,38.7,17.4,38.7,38.7V570.2z"/>
	</g>
	<g>
		<rect x="315.4" y="557.5" fill="#4D4D4D" width="16.3" height="12.7"/>
	</g>
	<g>
		<rect x="178.4" y="557.5" fill="#4D4D4D" width="16.3" height="12.7"/>
	</g>
</g>
<g>
	<path fill="#4D4D4D" d="M627.7,561.5c-25.9-25.9-68-25.9-93.9,0c-25.9,25.9-25.9,68,0,93.9c25.9,25.9,68,25.9,93.9,0
		C653.6,629.5,653.6,587.4,627.7,561.5z M608.2,635.9c-15.2,15.2-39.8,15.2-54.9,0c-15.2-15.2-15.2-39.8,0-54.9
		c15.2-15.2,39.8-15.2,54.9,0C623.4,596.1,623.4,620.7,608.2,635.9z"/>
	<path fill="#4D4D4D" d="M455.8,685.9c-12.6,12.6-12.6,33.1,0,45.7s33.1,12.6,45.7,0c12.6-12.6,12.6-33.1,0-45.7
		C488.9,673.2,468.5,673.2,455.8,685.9z M492.1,722.1c-7.4,7.4-19.4,7.4-26.7,0c-7.4-7.4-7.4-19.4,0-26.7c7.4-7.4,19.4-7.4,26.7,0
		C499.5,702.7,499.5,714.7,492.1,722.1z"/>
	<path fill="#4D4D4D" d="M525.1,662.3c0,0-18.7-15.9-17.2-39.3c0,0-0.9,25.1-36.1,42.4c0,0,20-7,38.6,11.6
		c18.6,18.6,11.6,38.6,11.6,38.6c17.3-35.1,42.4-36.1,42.4-36.1C541,681,525.1,662.3,525.1,662.3z"/>
</g>
<g>
	<path fill="#4D4D4D" d="M794.5,657.2h86.4c13.4,0,24.3-10.9,24.3-24.3v-64H770.2v64C770.2,646.3,781.1,657.2,794.5,657.2z"/>
	<path fill="#4D4D4D" d="M946.8,577.2c0-4.6-3.7-8.3-8.3-8.3h-24.1v16.7h24.1C943,585.6,946.8,581.8,946.8,577.2z"/>
	<path fill="#4D4D4D" d="M762.3,585.6v-16.7h-24.1c-4.6,0-8.3,3.7-8.3,8.3s3.7,8.3,8.3,8.3H762.3z"/>
	<polygon fill="#4D4D4D" points="737.9,736.5 818,716.9 818,706.6 737.9,719.8 	"/>
	<polygon fill="#4D4D4D" points="865.2,716.9 945.3,736.5 945.3,719.8 865.2,706.6 	"/>
	<polygon fill="#4D4D4D" points="846.5,706.6 836.8,706.6 835.5,706.6 820.6,723.3 820.6,736.5 836.8,736.5 846.5,736.5 
		862.8,736.5 862.8,723.3 847.8,706.6 	"/>
	<path fill="#4D4D4D" d="M805.7,667.4c-8.2,16.3,5.5,30.6,5.5,30.6h61.4c15.5-20.4,2.9-32.4,2.9-32.4c1.1,20.3-16.3,21.9-16.3,21.9
		c4.9-13.3-3.9-21.9-3.9-21.9c-1.2,13.7-13,17.6-13,17.6c-8-2-14.3-17.6-14.3-17.6c-7.7,11.4-3.7,21-3.7,21
		C817.9,686.5,805.7,667.4,805.7,667.4z"/>
</g>
<g>
	<path fill="#4D4D4D" d="M1250.1,727.6l-73.4-67.8l-9.3,12l-21.3-19c0,0-4.4,4.9-9.3,10.5l-36.3-33.8V569h-8.7v55.6L986.3,727.6
		h219.5l0,0H1250.1z M1097.2,714.3h-76.7l69.2-69.7L1101,676l-6.3,28.8L1097.2,714.3z"/>
	<path fill="#4D4D4D" d="M1131.5,601.9c12.2-3.7,18.8-7.9,28.4-5.9v-4.9v-8.6V571c-9.6-2.1-16.2,2.2-28.4,5.9s-25.6-6.5-25.6-6.5
		v11.3v8.6v5.1C1105.8,595.4,1119.3,605.6,1131.5,601.9z"/>
</g>
</svg>
