<?xml version="1.0" encoding="UTF-8"?>
<svg xmlns="http://www.w3.org/2000/svg" xmlns:xlink="http://www.w3.org/1999/xlink" width="2000" height="2000" viewBox="0 0 2000 2000">

<path fill-rule="evenodd" fill="rgb(94.139099%, 94.139099%, 94.139099%)" fill-opacity="1" d="M 1925.929688 1854.574219 C 1958.660156 1854.039062 1985.621094 1880.140625 1986.148438 1912.867188 C 1986.679688 1945.59375 1960.578125 1972.558594 1927.859375 1973.089844 C 1895.128906 1973.621094 1868.171875 1947.523438 1867.628906 1914.792969 C 1867.101562 1882.066406 1893.199219 1855.105469 1925.929688 1854.574219 "/>
<path fill-rule="evenodd" fill="rgb(94.139099%, 94.139099%, 94.139099%)" fill-opacity="1" d="M 1100.328125 1964.5 C 1102.421875 1964.464844 1104.148438 1966.136719 1104.179688 1968.230469 C 1104.210938 1970.324219 1102.539062 1972.046875 1100.449219 1972.082031 C 1098.359375 1972.117188 1096.628906 1970.445312 1096.601562 1968.351562 C 1096.558594 1966.257812 1098.230469 1964.53125 1100.328125 1964.5 "/>
<path fill-rule="evenodd" fill="rgb(94.139099%, 94.139099%, 94.139099%)" fill-opacity="1" d="M 1990.398438 1985.867188 L 934.90625 1985.867188 L 932.933594 1990.808594 L 1990.398438 1990.808594 L 1990.398438 1985.867188 "/>
<path fill-rule="evenodd" fill="rgb(94.139099%, 94.139099%, 94.139099%)" fill-opacity="1" d="M 1169.269531 1959.964844 C 1172.890625 1959.902344 1175.878906 1962.796875 1175.941406 1966.421875 C 1176 1970.050781 1173.101562 1973.039062 1169.480469 1973.097656 C 1165.851562 1973.15625 1162.859375 1970.261719 1162.800781 1966.636719 C 1162.75 1963.007812 1165.640625 1960.023438 1169.269531 1959.964844 "/>
<path fill-rule="evenodd" fill="rgb(94.139099%, 94.139099%, 94.139099%)" fill-opacity="1" d="M 1250.929688 1956.058594 C 1255.640625 1955.980469 1259.519531 1959.742188 1259.601562 1964.457031 C 1259.679688 1969.171875 1255.921875 1973.054688 1251.199219 1973.132812 C 1246.488281 1973.207031 1242.601562 1969.449219 1242.53125 1964.734375 C 1242.449219 1960.019531 1246.210938 1956.136719 1250.929688 1956.058594 "/>
<path fill-rule="evenodd" fill="rgb(94.139099%, 94.139099%, 94.139099%)" fill-opacity="1" d="M 1336.628906 1951.933594 C 1342.5 1951.839844 1347.320312 1956.515625 1347.421875 1962.378906 C 1347.519531 1968.242188 1342.839844 1973.070312 1336.980469 1973.167969 C 1331.121094 1973.261719 1326.28125 1968.585938 1326.191406 1962.722656 C 1326.089844 1956.859375 1330.769531 1952.03125 1336.628906 1951.933594 "/>
<path fill-rule="evenodd" fill="rgb(94.139099%, 94.139099%, 94.139099%)" fill-opacity="1" d="M 1428.390625 1943.871094 C 1436.488281 1943.742188 1443.160156 1950.199219 1443.289062 1958.300781 C 1443.429688 1966.398438 1436.96875 1973.074219 1428.871094 1973.203125 C 1420.769531 1973.335938 1414.089844 1966.875 1413.960938 1958.777344 C 1413.828125 1950.675781 1420.289062 1944.003906 1428.390625 1943.871094 "/>
<path fill-rule="evenodd" fill="rgb(94.139099%, 94.139099%, 94.139099%)" fill-opacity="1" d="M 1526.890625 1938.65625 C 1536.441406 1938.5 1544.300781 1946.117188 1544.460938 1955.664062 C 1544.621094 1965.214844 1537 1973.085938 1527.449219 1973.238281 C 1517.898438 1973.394531 1510.03125 1965.777344 1509.871094 1956.226562 C 1509.71875 1946.675781 1517.339844 1938.808594 1526.890625 1938.65625 "/>
<path fill-rule="evenodd" fill="rgb(94.139099%, 94.139099%, 94.139099%)" fill-opacity="1" d="M 1636.019531 1922.230469 C 1650.121094 1922.003906 1661.730469 1933.246094 1661.960938 1947.339844 C 1662.191406 1961.4375 1650.949219 1973.046875 1636.851562 1973.277344 C 1622.761719 1973.507812 1611.140625 1962.265625 1610.910156 1948.167969 C 1610.679688 1934.074219 1621.921875 1922.460938 1636.019531 1922.230469 "/>
<path fill-rule="evenodd" fill="rgb(94.139099%, 94.139099%, 94.139099%)" fill-opacity="1" d="M 1764.328125 1900.035156 C 1784.53125 1899.707031 1801.171875 1915.816406 1801.5 1936.015625 C 1801.828125 1956.214844 1785.71875 1972.855469 1765.519531 1973.183594 C 1745.320312 1973.511719 1728.679688 1957.402344 1728.351562 1937.203125 C 1728.019531 1917.003906 1744.128906 1900.363281 1764.328125 1900.035156 "/>
<path fill-rule="nonzero" fill="rgb(0%, 0%, 0%)" fill-opacity="1" d="M 1439.921875 1158.148438 C 1384.769531 1107.621094 1327.71875 1055.359375 1271.878906 1004.203125 C 1261.550781 994.738281 1245.101562 995.441406 1235.628906 1005.773438 L 1099.558594 1154.304688 C 1090.101562 1164.632812 1090.800781 1181.089844 1101.128906 1190.554688 C 1157.648438 1242.328125 1212.269531 1292.359375 1267.921875 1343.34375 C 1273.320312 1348.046875 1279.359375 1351.496094 1287.648438 1351.132812 C 1293.828125 1350.863281 1299.890625 1348.421875 1304.519531 1343.863281 L 1305.960938 1342.339844 L 1441.488281 1194.394531 C 1450.949219 1184.066406 1450.25 1167.609375 1439.921875 1158.148438 "/>
<path fill-rule="nonzero" fill="rgb(0%, 0%, 0%)" fill-opacity="1" d="M 1185.371094 1316.3125 L 1118.078125 1254.671875 L 991.511719 1382.90625 C 1020.179688 1396.007812 1042.640625 1420.304688 1053.359375 1450.0625 L 1185.371094 1316.3125 "/>
<path fill-rule="nonzero" fill="rgb(0%, 0%, 0%)" fill-opacity="1" d="M 1330.128906 995.941406 C 1327.929688 998.339844 1325.898438 1000.832031 1324.039062 1003.398438 L 1443.878906 1113.175781 C 1446.609375 1110.816406 1448.410156 1108.894531 1451.558594 1105.683594 C 1511.769531 1039.761719 1558.679688 975.300781 1592.269531 912.300781 C 1625.621094 849.769531 1645.789062 788.691406 1652.769531 729.078125 C 1660.261719 665.078125 1653.058594 604.179688 1631.171875 546.378906 C 1609.148438 488.238281 1572.210938 432.96875 1520.351562 380.589844 C 1508.691406 368.808594 1489.929688 353.890625 1477.019531 344.261719 C 1421.460938 302.800781 1364.101562 276.320312 1304.941406 264.828125 C 1245.761719 253.328125 1184.539062 256.699219 1121.269531 274.921875 C 934.671875 328.660156 770.796875 507.441406 650.96875 668.011719 C 645.597656 675.210938 643.332031 679.691406 639.914062 687.949219 L 639.9375 687.960938 C 603.6875 774.839844 580.085938 872.609375 609.144531 962.96875 C 609.449219 963.929688 609.671875 964.898438 609.8125 965.859375 L 609.847656 965.859375 C 612.855469 986.128906 611.988281 1003.832031 603.140625 1021.15625 C 596.691406 1033.777344 586.5 1047.988281 572.816406 1064.679688 C 559.203125 1081.285156 542.921875 1099.558594 523.671875 1120.933594 C 523.226562 1121.433594 522.753906 1121.898438 522.265625 1122.335938 L 522.265625 1122.339844 C 451.324219 1185.460938 403.875 1251.269531 375.9375 1315.355469 C 345.074219 1386.144531 338.015625 1454.820312 349.359375 1515.269531 C 371.144531 1631.347656 457.601562 1714.921875 573.328125 1736.566406 C 638.292969 1748.71875 713.355469 1740.828125 791.488281 1706.285156 C 861.480469 1675.34375 933.839844 1623.035156 1003.609375 1544.640625 C 1018.691406 1527.742188 1025.488281 1506.347656 1024.300781 1485.414062 C 1023.519531 1471.746094 1019.359375 1458.574219 1012.171875 1446.984375 C 1008.71875 1441.410156 1002.359375 1433.363281 997.058594 1429.023438 C 980.160156 1413.949219 958.765625 1407.148438 937.835938 1408.339844 C 916.949219 1409.527344 896.503906 1418.703125 881.445312 1435.578125 L 881.441406 1435.582031 C 833.320312 1489.648438 785.894531 1526.550781 741.699219 1549.253906 C 690.1875 1575.714844 642.769531 1582.949219 603.289062 1575.566406 C 555.429688 1566.613281 519.246094 1533.332031 510.21875 1485.234375 C 503.6875 1450.425781 510.0625 1409.222656 532.941406 1364.785156 C 552.589844 1326.621094 584.632812 1285.742188 631.449219 1244.246094 C 631.710938 1244.015625 631.980469 1243.796875 632.25 1243.582031 L 632.222656 1243.546875 C 636.058594 1240.527344 639.1875 1237.617188 642.476562 1233.96875 C 667.972656 1205.671875 689.414062 1181.625 706.628906 1159.898438 C 740.550781 1117.082031 766.597656 1072.359375 773.621094 1019.835938 C 777.128906 993.609375 775.9375 965.429688 770.210938 932.878906 C 769.617188 929.488281 769.519531 927.96875 768.570312 924.109375 L 765.746094 914.789062 C 762.921875 906.5 761.191406 897.261719 760.558594 887.058594 C 758.054688 846.761719 772.011719 799.359375 787.515625 760.371094 C 788.121094 758.828125 788.921875 757.429688 789.867188 756.171875 L 789.835938 756.148438 C 884.238281 631.101562 1023.910156 473.441406 1166.390625 432.398438 C 1203.539062 421.699219 1239.929688 420 1275.550781 427.300781 C 1318.289062 436.058594 1356.191406 456.5 1393.210938 486.890625 C 1397.351562 490.289062 1406.25 497.589844 1409.128906 500.828125 C 1439.988281 533.058594 1462.191406 566.460938 1475.738281 601.019531 C 1489.648438 636.511719 1494.410156 673.011719 1490.011719 710.53125 C 1485.011719 753.230469 1468.960938 798.609375 1441.859375 846.671875 C 1415.308594 893.761719 1378.058594 943.488281 1330.128906 995.871094 L 1330.089844 995.910156 L 1330.128906 995.941406 "/>
</svg>
