<?xml version="1.0" encoding="utf-8"?>
<svg xmlns="http://www.w3.org/2000/svg">
	<defs>
		<symbol id="icon-slackline" viewBox="0 0 3000 3000">
			<g>
			<path fill-rule="nonzero" fill="rgb(0%, 0%, 0%)" fill-opacity="1" d="M 1279.429688 779.058594 C 1251 778.101562 1226.25 798.371094 1221.589844 826.429688 L 1194.621094 988.691406 L 1168.53125 987.039062 C 1165.351562 992.628906 1162.550781 997.710938 1159.828125 1002.691406 C 1160.949219 1003.648438 1161.851562 1004.839844 1162.488281 1006.179688 C 1162.488281 1006.179688 1170.480469 1023.261719 1177.03125 1039.300781 C 1178.601562 1043.148438 1179.570312 1047.179688 1180.53125 1051.089844 C 1181.5 1055 1182.46875 1058.878906 1182.800781 1059.851562 C 1185.71875 1068.429688 1187.609375 1075.011719 1190.601562 1086.089844 C 1192.089844 1091.648438 1193.808594 1097.441406 1195.308594 1102.351562 L 1238.558594 1105.089844 C 1267.589844 1106.929688 1293.300781 1086.5 1298.070312 1057.808594 L 1333.441406 845.019531 C 1335.910156 830.191406 1332.378906 814.988281 1323.628906 802.75 C 1314.890625 790.519531 1301.640625 782.269531 1286.808594 779.800781 C 1284.371094 779.390625 1281.910156 779.148438 1279.429688 779.058594 Z M 994.1875 976.820312 C 966.578125 979.550781 945.003906 1001.871094 943.199219 1029.558594 C 941.222656 1060.808594 964.945312 1087.738281 996.195312 1089.71875 L 1172.691406 1100.910156 C 1171.800781 1097.871094 1170.898438 1094.71875 1170.070312 1091.609375 C 1167.121094 1080.671875 1165.429688 1074.808594 1162.671875 1066.710938 C 1161.558594 1063.449219 1160.808594 1059.910156 1159.890625 1056.191406 C 1158.96875 1052.460938 1157.878906 1048.640625 1157.351562 1047.339844 C 1154.101562 1039.378906 1150.429688 1031.058594 1147.640625 1024.851562 C 1140.820312 1037.089844 1132.648438 1051.171875 1120.058594 1071.351562 C 1116.949219 1076.328125 1110.390625 1077.839844 1105.410156 1074.738281 C 1100.429688 1071.628906 1098.921875 1065.070312 1102.019531 1060.089844 C 1124.648438 1023.839844 1132.890625 1007.339844 1144.96875 985.550781 L 1018.691406 977.539062 L 976.652344 1046.109375 C 973.582031 1051.109375 967.039062 1052.679688 962.035156 1049.621094 C 957.03125 1046.550781 955.460938 1040.011719 958.523438 1035 L 994.1875 976.820312 "/>
			<path fill-rule="nonzero" fill="rgb(0%, 0%, 0%)" fill-opacity="1" d="M 902.902344 0 L 906.886719 19.960938 L 1212.5 481.441406 L 1294.019531 809.851562 L 1643.46875 1127.28125 L 2161.660156 1770.28125 L 2191.289062 2160.246094 L 2215.160156 2289.304688 L 2215.160156 2439.648438 L 2368.96875 2566.269531 L 2392.058594 2883.355469 L 2293.550781 2908.347656 L 2274.398438 3000 L 2967.21875 3000 C 2985.378906 3000 3000 2985.382812 3000 2967.222656 L 3000 32.78125 C 3000 14.621094 2985.378906 0 2967.21875 0 L 902.902344 0 "/>
			<path fill-rule="nonzero" fill="rgb(0%, 0%, 0%)" fill-opacity="1" d="M 1030.550781 962.328125 C 1029.648438 962.410156 1028.75 962.5 1027.851562 962.589844 L 976.652344 1046.109375 C 973.582031 1051.109375 967.039062 1052.679688 962.035156 1049.621094 C 957.03125 1046.550781 955.460938 1040.011719 958.523438 1035 L 999.722656 967.800781 C 934.703125 987.449219 896.488281 1054.601562 912.800781 1120.53125 C 912.800781 1120.53125 919.929688 1149.269531 930.882812 1183.941406 C 941.835938 1218.601562 952.878906 1257.140625 980.902344 1301.628906 C 1008.929688 1346.121094 1038.921875 1372.71875 1065.449219 1397.570312 C 1091.980469 1422.421875 1114.828125 1441.261719 1114.828125 1441.261719 C 1169.148438 1486.121094 1249.550781 1478.449219 1294.410156 1424.128906 C 1302.398438 1414.441406 1308.921875 1403.621094 1313.761719 1392.03125 L 1267.5 1422.878906 C 1265.160156 1424.449219 1262.28125 1425.019531 1259.519531 1424.460938 C 1256.75 1423.910156 1254.320312 1422.28125 1252.761719 1419.941406 C 1251.191406 1417.589844 1250.621094 1414.71875 1251.179688 1411.949219 C 1251.730469 1409.191406 1253.359375 1406.761719 1255.699219 1405.191406 L 1322.359375 1360.730469 C 1328.558594 1316.800781 1311.488281 1272.800781 1277.289062 1244.550781 C 1277.289062 1244.550781 1271.148438 1239.421875 1262.339844 1231.699219 L 1215.070312 1264.671875 C 1210.261719 1268.03125 1203.628906 1266.851562 1200.269531 1262.039062 C 1196.910156 1257.21875 1198.089844 1250.601562 1202.910156 1247.238281 L 1246.070312 1217.128906 C 1244.03125 1215.25 1241.960938 1213.351562 1239.839844 1211.359375 C 1219.558594 1192.371094 1195.929688 1164.339844 1196.761719 1165.648438 C 1197.589844 1166.96875 1182.519531 1133.558594 1174.148438 1107.070312 C 1165.78125 1080.578125 1160.378906 1058.960938 1160.378906 1058.960938 C 1157.480469 1047.410156 1152.96875 1036.320312 1146.988281 1026.011719 C 1140.300781 1037.96875 1132.261719 1051.800781 1120.058594 1071.351562 C 1116.949219 1076.328125 1110.390625 1077.839844 1105.410156 1074.738281 C 1100.429688 1071.628906 1098.921875 1065.070312 1102.019531 1060.089844 C 1117.019531 1036.070312 1125.671875 1020.75 1133.328125 1006.789062 C 1113.421875 983.519531 1085.800781 968.191406 1055.519531 963.601562 C 1047.261719 962.359375 1038.890625 961.941406 1030.550781 962.328125 "/>
			<path fill-rule="nonzero" fill="rgb(0%, 0%, 0%)" fill-opacity="1" d="M 1017.308594 722.519531 C 954.914062 722.519531 904.332031 773.109375 904.332031 835.511719 C 904.382812 895.691406 951.59375 945.269531 1011.699219 948.261719 L 1071.371094 850.910156 L 1091.351562 750.171875 C 1070.800781 732.339844 1044.519531 722.519531 1017.308594 722.519531 Z M 1109.148438 769.710938 L 1091.851562 856.921875 C 1091.609375 858.148438 1091.148438 859.328125 1090.488281 860.398438 L 1037.660156 946.578125 C 1091.300781 936.761719 1130.269531 890.03125 1130.300781 835.511719 C 1130.289062 811.898438 1122.898438 788.890625 1109.148438 769.710938 "/>
			<path fill-rule="nonzero" fill="rgb(0%, 0%, 0%)" fill-opacity="1" d="M 1210.691406 1322.78125 C 1185.378906 1322.988281 1162.101562 1336.691406 1149.628906 1358.730469 C 1130.339844 1392.78125 1142.320312 1436.019531 1176.378906 1455.308594 L 1378.441406 1569.710938 L 1392.738281 1657.660156 L 1411.839844 1489.148438 L 1412.371094 1426.050781 L 1331.441406 1380.230469 L 1267.5 1422.878906 C 1265.160156 1424.449219 1262.28125 1425.019531 1259.519531 1424.460938 C 1256.75 1423.910156 1254.320312 1422.28125 1252.761719 1419.941406 C 1251.191406 1417.589844 1250.621094 1414.71875 1251.179688 1411.949219 C 1251.730469 1409.191406 1253.359375 1406.761719 1255.699219 1405.191406 L 1310.71875 1368.488281 L 1246.210938 1331.96875 C 1235.378906 1325.839844 1223.128906 1322.671875 1210.691406 1322.78125 Z M 1422.25 1431.640625 L 1421.761719 1489.488281 C 1421.761719 1489.660156 1421.75 1489.828125 1421.730469 1490.011719 L 1398.628906 1693.828125 L 1405.359375 1735.179688 L 1433.058594 1490.738281 C 1433.089844 1490.539062 1433.089844 1490.339844 1433.101562 1490.140625 L 1433.539062 1438.03125 Z M 1443.410156 1443.621094 L 1443.019531 1490.21875 L 1443.019531 1490.230469 C 1443.011719 1490.769531 1442.980469 1491.300781 1442.921875 1491.839844 C 1442.921875 1491.851562 1442.921875 1491.851562 1442.921875 1491.851562 L 1411.238281 1771.351562 L 1418.988281 1819 C 1425.269531 1857.628906 1461.679688 1883.851562 1500.308594 1877.558594 C 1518.859375 1874.550781 1535.460938 1864.28125 1546.441406 1849.03125 C 1557.429688 1833.78125 1561.898438 1814.789062 1558.878906 1796.238281 L 1512.878906 1513.398438 C 1509.421875 1492.199219 1496.539062 1473.699219 1477.839844 1463.109375 L 1443.410156 1443.621094 "/>
			<path fill-rule="nonzero" fill="rgb(0%, 0%, 0%)" fill-opacity="1" d="M 1203.640625 552.320312 C 1175.789062 551.011719 1151.109375 570.148438 1145.460938 597.460938 L 1094.550781 843.320312 L 1091.851562 856.921875 C 1091.609375 858.148438 1091.148438 859.328125 1090.488281 860.398438 L 976.652344 1046.109375 C 975.894531 1047.28125 974.917969 1048.300781 973.769531 1049.089844 L 968.441406 1057.808594 C 952.113281 1084.53125 960.535156 1119.421875 987.25 1135.75 C 1000.078125 1143.589844 1015.5 1146.011719 1030.121094 1142.480469 C 1044.730469 1138.949219 1057.351562 1129.761719 1065.191406 1116.929688 L 1193.890625 906.328125 C 1197.300781 900.769531 1199.710938 894.648438 1201.039062 888.261719 L 1256.488281 620.441406 C 1262.839844 589.789062 1243.128906 559.789062 1212.46875 553.441406 C 1209.558594 552.828125 1206.609375 552.460938 1203.640625 552.320312 "/>
			<path fill-rule="nonzero" fill="rgb(0%, 0%, 0%)" fill-opacity="1" d="M 1037.050781 1432.570312 C 1033.03125 1426.441406 1031.621094 1418.960938 1033.109375 1411.789062 C 1034.609375 1404.609375 1038.890625 1398.328125 1045.03125 1394.308594 L 1058.148438 1385.71875 C 1064.28125 1381.710938 1071.761719 1380.289062 1078.929688 1381.789062 C 1086.101562 1383.28125 1092.390625 1387.570312 1096.398438 1393.699219 L 1142.589844 1464.238281 C 1150.949219 1477 1147.378906 1494.128906 1134.609375 1502.488281 L 1121.488281 1511.078125 C 1108.71875 1519.441406 1091.589844 1515.871094 1083.230469 1503.101562 L 1037.050781 1432.570312 "/>
			<path fill-rule="nonzero" fill="rgb(0%, 0%, 0%)" fill-opacity="1" d="M 1604.761719 1010.160156 C 1602 1009.550781 1599.121094 1010.070312 1596.75 1011.589844 L 1424.738281 1121.640625 C 1421.710938 1123.578125 1419.871094 1126.910156 1419.839844 1130.5 L 1416.800781 1489.449219 L 1381.570312 1800.238281 C 1381.511719 1800.839844 1381.488281 1801.441406 1381.519531 1802.039062 L 1447.398438 2963.460938 C 1447.558594 2966.277344 1448.828125 2968.914062 1450.929688 2970.789062 C 1453.039062 2972.667969 1455.800781 2973.632812 1458.609375 2973.472656 C 1461.429688 2973.3125 1464.058594 2972.039062 1465.941406 2969.9375 C 1467.820312 2967.832031 1468.78125 2965.070312 1468.621094 2962.253906 L 1402.800781 1801.738281 L 1437.988281 1491.289062 C 1438.03125 1490.921875 1438.050781 1490.550781 1438.058594 1490.179688 L 1441.050781 1136.441406 L 1608.199219 1029.5 C 1610.578125 1027.980469 1612.25 1025.578125 1612.859375 1022.820312 C 1613.460938 1020.070312 1612.949219 1017.191406 1611.429688 1014.808594 C 1609.910156 1012.441406 1607.511719 1010.761719 1604.761719 1010.160156 "/>
			<path fill-rule="nonzero" fill="rgb(0%, 0%, 0%)" fill-opacity="1" d="M 1493.570312 1082.621094 C 1477.761719 1082.058594 1462.210938 1086.808594 1449.410156 1096.109375 L 1205.609375 1273.210938 C 1190.398438 1284.261719 1180.210938 1300.890625 1177.261719 1319.449219 C 1174.320312 1338.019531 1178.871094 1356.988281 1189.921875 1372.199219 C 1206.988281 1395.648438 1236.640625 1406.339844 1264.75 1399.160156 L 1335.558594 1351.929688 C 1337.121094 1350.898438 1338.921875 1350.300781 1340.789062 1350.191406 L 1493.710938 1239.109375 L 1649.691406 1338.28125 C 1682.71875 1359.28125 1726.519531 1349.53125 1747.511719 1316.5 C 1768.511719 1283.46875 1758.761719 1239.679688 1725.730469 1218.679688 L 1529.078125 1093.640625 C 1521.121094 1088.578125 1512.21875 1085.160156 1502.921875 1083.578125 C 1499.820312 1083.050781 1496.699219 1082.730469 1493.570312 1082.621094 "/>
			</g>
		</symbol>
		<symbol id="icon-map" viewBox="0 0 350 490">
			<g>
			<path fill="#4D4D4D" d="M190.3,292l-18.7,8.6v99l46.9-18.6v-44.9l-2.1-2.4C215.6,332.8,200.4,314.8,190.3,292z"/>
			<path fill="#4D4D4D" d="M161.4,294.2l25.1-11.6c-0.8-2.2-1.5-4.4-2.1-6.7c-0.5-1.7-0.8-3.4-1.1-5.2l-33.4,15.5v142.8l68.6-25.8V392
		l-57.1,22.6V294.2z"/>
			<polygon fill="#4D4D4D" points="359.6,285.4 310.6,307.7 310.6,407.9 359.6,388.9 	"/>
			<polygon fill="#4D4D4D" points="310.6,286.3 310.6,296.5 369.8,269.7 369.8,395.9 310.6,418.8 310.6,429.1 379.1,403.3
		379.1,254.5 	"/>
			<path fill="#4D4D4D" d="M264.6,275.8c-0.5,2-1.1,4-1.8,6l35,15v-10.5l-32.3-14.9C265.4,272.8,265.1,274.3,264.6,275.8z"/>
			<path fill="#4D4D4D" d="M231.7,334l-2.3,2.6v44.1l68.6,27.3V307.9l-38.7-16.6C248.9,314.7,232.5,333,231.7,334z"/>
			<polygon fill="#4D4D4D" points="229.3,403.3 297.9,429.1 297.9,418.8 229.3,391.6 	"/>
			<path fill="#4D4D4D" d="M254.8,273.2c0.6-2.1,0.9-4.3,1-6.4c0.9-17.1-12.9-32.3-30.9-32.3h-0.8c-17.8,0-31.7,14.9-31,31.8
		c0.1,2.3,0.4,4.6,1.1,7c5.3,19,17.2,37.1,24.3,46.7c3.4,4.6,5.7,7.2,5.7,7.2s2.1-2.3,5.2-6.3C236.6,311.5,249.5,293,254.8,273.2z
		 M224.5,280.8c-2.1,0-4.1-0.4-6-1c-7-2.5-12.1-9.2-12.1-17.1c0-0.9,0.1-1.8,0.2-2.7c1.3-8.7,8.8-15.3,17.9-15.3
		c9.3,0,16.9,6.9,18,15.9c0.1,0.7,0.1,1.4,0.1,2.2c0,8.3-5.6,15.3-13.3,17.4C227.8,280.6,226.2,280.8,224.5,280.8z"/>
			</g>
		</symbol>

		<symbol id="icon-hardware" viewBox="0 0 2000 2000">
			<g>
		<path fill-rule="nonzero" fill="rgb(0%, 0%, 0%)" fill-opacity="1" d="M 1439.921875 1158.148438 C 1384.769531 1107.621094 1327.71875 1055.359375 1271.878906 1004.203125 C 1261.550781 994.738281 1245.101562 995.441406 1235.628906 1005.773438 L 1099.558594 1154.304688 C 1090.101562 1164.632812 1090.800781 1181.089844 1101.128906 1190.554688 C 1157.648438 1242.328125 1212.269531 1292.359375 1267.921875 1343.34375 C 1273.320312 1348.046875 1279.359375 1351.496094 1287.648438 1351.132812 C 1293.828125 1350.863281 1299.890625 1348.421875 1304.519531 1343.863281 L 1305.960938 1342.339844 L 1441.488281 1194.394531 C 1450.949219 1184.066406 1450.25 1167.609375 1439.921875 1158.148438 "/>
		<path fill-rule="nonzero" fill="rgb(0%, 0%, 0%)" fill-opacity="1" d="M 1185.371094 1316.3125 L 1118.078125 1254.671875 L 991.511719 1382.90625 C 1020.179688 1396.007812 1042.640625 1420.304688 1053.359375 1450.0625 L 1185.371094 1316.3125 "/>
		<path fill-rule="nonzero" fill="rgb(0%, 0%, 0%)" fill-opacity="1" d="M 1330.128906 995.941406 C 1327.929688 998.339844 1325.898438 1000.832031 1324.039062 1003.398438 L 1443.878906 1113.175781 C 1446.609375 1110.816406 1448.410156 1108.894531 1451.558594 1105.683594 C 1511.769531 1039.761719 1558.679688 975.300781 1592.269531 912.300781 C 1625.621094 849.769531 1645.789062 788.691406 1652.769531 729.078125 C 1660.261719 665.078125 1653.058594 604.179688 1631.171875 546.378906 C 1609.148438 488.238281 1572.210938 432.96875 1520.351562 380.589844 C 1508.691406 368.808594 1489.929688 353.890625 1477.019531 344.261719 C 1421.460938 302.800781 1364.101562 276.320312 1304.941406 264.828125 C 1245.761719 253.328125 1184.539062 256.699219 1121.269531 274.921875 C 934.671875 328.660156 770.796875 507.441406 650.96875 668.011719 C 645.597656 675.210938 643.332031 679.691406 639.914062 687.949219 L 639.9375 687.960938 C 603.6875 774.839844 580.085938 872.609375 609.144531 962.96875 C 609.449219 963.929688 609.671875 964.898438 609.8125 965.859375 L 609.847656 965.859375 C 612.855469 986.128906 611.988281 1003.832031 603.140625 1021.15625 C 596.691406 1033.777344 586.5 1047.988281 572.816406 1064.679688 C 559.203125 1081.285156 542.921875 1099.558594 523.671875 1120.933594 C 523.226562 1121.433594 522.753906 1121.898438 522.265625 1122.335938 L 522.265625 1122.339844 C 451.324219 1185.460938 403.875 1251.269531 375.9375 1315.355469 C 345.074219 1386.144531 338.015625 1454.820312 349.359375 1515.269531 C 371.144531 1631.347656 457.601562 1714.921875 573.328125 1736.566406 C 638.292969 1748.71875 713.355469 1740.828125 791.488281 1706.285156 C 861.480469 1675.34375 933.839844 1623.035156 1003.609375 1544.640625 C 1018.691406 1527.742188 1025.488281 1506.347656 1024.300781 1485.414062 C 1023.519531 1471.746094 1019.359375 1458.574219 1012.171875 1446.984375 C 1008.71875 1441.410156 1002.359375 1433.363281 997.058594 1429.023438 C 980.160156 1413.949219 958.765625 1407.148438 937.835938 1408.339844 C 916.949219 1409.527344 896.503906 1418.703125 881.445312 1435.578125 L 881.441406 1435.582031 C 833.320312 1489.648438 785.894531 1526.550781 741.699219 1549.253906 C 690.1875 1575.714844 642.769531 1582.949219 603.289062 1575.566406 C 555.429688 1566.613281 519.246094 1533.332031 510.21875 1485.234375 C 503.6875 1450.425781 510.0625 1409.222656 532.941406 1364.785156 C 552.589844 1326.621094 584.632812 1285.742188 631.449219 1244.246094 C 631.710938 1244.015625 631.980469 1243.796875 632.25 1243.582031 L 632.222656 1243.546875 C 636.058594 1240.527344 639.1875 1237.617188 642.476562 1233.96875 C 667.972656 1205.671875 689.414062 1181.625 706.628906 1159.898438 C 740.550781 1117.082031 766.597656 1072.359375 773.621094 1019.835938 C 777.128906 993.609375 775.9375 965.429688 770.210938 932.878906 C 769.617188 929.488281 769.519531 927.96875 768.570312 924.109375 L 765.746094 914.789062 C 762.921875 906.5 761.191406 897.261719 760.558594 887.058594 C 758.054688 846.761719 772.011719 799.359375 787.515625 760.371094 C 788.121094 758.828125 788.921875 757.429688 789.867188 756.171875 L 789.835938 756.148438 C 884.238281 631.101562 1023.910156 473.441406 1166.390625 432.398438 C 1203.539062 421.699219 1239.929688 420 1275.550781 427.300781 C 1318.289062 436.058594 1356.191406 456.5 1393.210938 486.890625 C 1397.351562 490.289062 1406.25 497.589844 1409.128906 500.828125 C 1439.988281 533.058594 1462.191406 566.460938 1475.738281 601.019531 C 1489.648438 636.511719 1494.410156 673.011719 1490.011719 710.53125 C 1485.011719 753.230469 1468.960938 798.609375 1441.859375 846.671875 C 1415.308594 893.761719 1378.058594 943.488281 1330.128906 995.871094 L 1330.089844 995.910156 L 1330.128906 995.941406 "/>
			</g>
		</symbol>

		<symbol id="icon-log" viewBox="0 0 2470 3002">
			<g>
	<path fill-rule="nonzero" fill="rgb(0%, 0%, 0%)" fill-opacity="1" d="M 110.007812 172.878906 L 2359.988281 172.878906 C 2420.148438 172.878906 2469.371094 222.140625 2469.371094 282.261719 L 2469.371094 2891.628906 C 2469.371094 2951.789062 2420.101562 3001 2359.988281 3001 L 110.007812 3001 C 49.847656 3001 0.628906 2951.738281 0.628906 2891.628906 L 0.628906 282.261719 C 0.628906 222.101562 49.890625 172.878906 110.007812 172.878906 Z M 2359.988281 266.640625 L 110.007812 266.640625 C 101.378906 266.640625 94.390625 273.609375 94.390625 282.261719 L 94.390625 2891.628906 C 94.390625 2900.25 101.363281 2907.242188 110.007812 2907.242188 L 2359.988281 2907.242188 C 2368.609375 2907.242188 2375.609375 2900.277344 2375.609375 2891.628906 L 2375.609375 282.261719 C 2375.609375 273.628906 2368.640625 266.640625 2359.988281 266.640625 "/>
	<path fill-rule="nonzero" fill="rgb(0%, 0%, 0%)" fill-opacity="1" d="M 492.824219 47.878906 C 492.824219 21.988281 471.835938 1 445.945312 1 C 420.054688 1 399.066406 21.988281 399.066406 47.878906 L 399.066406 391.628906 C 399.066406 417.519531 420.054688 438.511719 445.945312 438.511719 C 471.835938 438.511719 492.824219 417.519531 492.824219 391.628906 L 492.824219 47.878906 "/>
	<path fill-rule="nonzero" fill="rgb(0%, 0%, 0%)" fill-opacity="1" d="M 887.347656 47.878906 C 887.347656 21.988281 866.359375 1 840.46875 1 C 814.578125 1 793.589844 21.988281 793.589844 47.878906 L 793.589844 391.628906 C 793.589844 417.519531 814.578125 438.511719 840.46875 438.511719 C 866.359375 438.511719 887.347656 417.519531 887.347656 391.628906 L 887.347656 47.878906 "/>
	<path fill-rule="nonzero" fill="rgb(0%, 0%, 0%)" fill-opacity="1" d="M 1281.878906 47.878906 C 1281.878906 21.988281 1260.890625 1 1235 1 C 1209.109375 1 1188.121094 21.988281 1188.121094 47.878906 L 1188.121094 391.628906 C 1188.121094 417.519531 1209.109375 438.511719 1235 438.511719 C 1260.890625 438.511719 1281.878906 417.519531 1281.878906 391.628906 L 1281.878906 47.878906 "/>
	<path fill-rule="nonzero" fill="rgb(0%, 0%, 0%)" fill-opacity="1" d="M 1676.410156 47.878906 C 1676.410156 21.988281 1655.421875 1 1629.53125 1 C 1603.640625 1 1582.648438 21.988281 1582.648438 47.878906 L 1582.648438 391.628906 C 1582.648438 417.519531 1603.640625 438.511719 1629.53125 438.511719 C 1655.421875 438.511719 1676.410156 417.519531 1676.410156 391.628906 L 1676.410156 47.878906 "/>
	<path fill-rule="nonzero" fill="rgb(0%, 0%, 0%)" fill-opacity="1" d="M 2070.941406 47.878906 C 2070.941406 21.988281 2049.949219 1 2024.058594 1 C 1998.171875 1 1977.179688 21.988281 1977.179688 47.878906 L 1977.179688 391.628906 C 1977.179688 417.519531 1998.171875 438.511719 2024.058594 438.511719 C 2049.949219 438.511719 2070.941406 417.519531 2070.941406 391.628906 L 2070.941406 47.878906 "/>
	<path fill-rule="nonzero" fill="rgb(0%, 0%, 0%)" fill-opacity="1" d="M 1977.179688 897.46875 C 2003.070312 897.46875 2024.058594 876.480469 2024.058594 850.589844 C 2024.058594 824.699219 2003.070312 803.710938 1977.179688 803.710938 L 1110 803.710938 C 1084.109375 803.710938 1063.121094 824.699219 1063.121094 850.589844 C 1063.121094 876.480469 1084.109375 897.46875 1110 897.46875 L 1977.179688 897.46875 "/>
	<path fill-rule="nonzero" fill="rgb(0%, 0%, 0%)" fill-opacity="1" d="M 1977.179688 1419.609375 C 2003.070312 1419.609375 2024.058594 1398.621094 2024.058594 1372.738281 C 2024.058594 1346.851562 2003.070312 1325.859375 1977.179688 1325.859375 L 492.824219 1325.859375 C 466.933594 1325.859375 445.945312 1346.851562 445.945312 1372.738281 C 445.945312 1398.621094 466.933594 1419.609375 492.824219 1419.609375 L 1977.179688 1419.609375 "/>
	<path fill-rule="nonzero" fill="rgb(0%, 0%, 0%)" fill-opacity="1" d="M 1977.179688 1941.761719 C 2003.070312 1941.761719 2024.058594 1920.769531 2024.058594 1894.878906 C 2024.058594 1868.988281 2003.070312 1848 1977.179688 1848 L 492.824219 1848 C 466.933594 1848 445.945312 1868.988281 445.945312 1894.878906 C 445.945312 1920.769531 466.933594 1941.761719 492.824219 1941.761719 L 1977.179688 1941.761719 "/>
	<path fill-rule="nonzero" fill="rgb(0%, 0%, 0%)" fill-opacity="1" d="M 1360 2463.90625 C 1385.890625 2463.90625 1406.878906 2442.914062 1406.878906 2417.027344 C 1406.878906 2391.136719 1385.890625 2370.148438 1360 2370.148438 L 492.824219 2370.148438 C 466.933594 2370.148438 445.945312 2391.136719 445.945312 2417.027344 C 445.945312 2442.914062 466.933594 2463.90625 492.824219 2463.90625 L 1360 2463.90625 "/>
	<!-- <path fill-rule="evenodd" fill="rgb(92.576599%, 92.576599%, 92.576599%)" fill-opacity="1" d="M 492.824219 1325.859375 L 1977.179688 1325.859375 C 2003.070312 1325.859375 2024.058594 1346.851562 2024.058594 1372.738281 C 2024.058594 1398.621094 2003.070312 1419.609375 1977.179688 1419.609375 L 492.824219 1419.609375 C 466.933594 1419.609375 445.945312 1398.621094 445.945312 1372.738281 C 445.945312 1346.851562 466.933594 1325.859375 492.824219 1325.859375 Z M 492.824219 1848 L 1977.179688 1848 C 2003.070312 1848 2024.058594 1868.988281 2024.058594 1894.878906 C 2024.058594 1920.769531 2003.070312 1941.761719 1977.179688 1941.761719 L 492.824219 1941.761719 C 466.933594 1941.761719 445.945312 1920.769531 445.945312 1894.878906 C 445.945312 1868.988281 466.933594 1848 492.824219 1848 Z M 492.824219 2370.148438 L 1360 2370.148438 C 1385.890625 2370.148438 1406.878906 2391.136719 1406.878906 2417.027344 C 1406.878906 2442.914062 1385.890625 2463.90625 1360 2463.90625 L 492.824219 2463.90625 C 466.933594 2463.90625 445.945312 2442.914062 445.945312 2417.027344 C 445.945312 2391.136719 466.933594 2370.148438 492.824219 2370.148438 Z M 1188.121094 266.640625 L 887.347656 266.640625 L 887.347656 391.628906 C 887.347656 417.519531 866.359375 438.511719 840.46875 438.511719 C 814.578125 438.511719 793.589844 417.519531 793.589844 391.628906 L 793.589844 266.640625 L 492.824219 266.640625 L 492.824219 391.628906 C 492.824219 417.519531 471.835938 438.511719 445.945312 438.511719 C 420.054688 438.511719 399.066406 417.519531 399.066406 391.628906 L 399.066406 266.640625 L 110.007812 266.640625 C 101.378906 266.640625 94.390625 273.609375 94.390625 282.261719 L 94.390625 2891.628906 C 94.390625 2900.25 101.363281 2907.242188 110.007812 2907.242188 L 2359.988281 2907.242188 C 2368.609375 2907.242188 2375.609375 2900.277344 2375.609375 2891.628906 L 2375.609375 282.261719 C 2375.609375 273.628906 2368.640625 266.640625 2359.988281 266.640625 L 2070.941406 266.640625 L 2070.941406 391.628906 C 2070.941406 417.519531 2049.949219 438.511719 2024.058594 438.511719 C 1998.171875 438.511719 1977.179688 417.519531 1977.179688 391.628906 L 1977.179688 266.640625 L 1676.410156 266.640625 L 1676.410156 391.628906 C 1676.410156 417.519531 1655.421875 438.511719 1629.53125 438.511719 C 1603.640625 438.511719 1582.648438 417.519531 1582.648438 391.628906 L 1582.648438 266.640625 L 1281.878906 266.640625 L 1281.878906 391.628906 C 1281.878906 417.519531 1260.890625 438.511719 1235 438.511719 C 1209.109375 438.511719 1188.121094 417.519531 1188.121094 391.628906 Z M 1977.179688 897.46875 L 1110 897.46875 C 1084.109375 897.46875 1063.121094 876.480469 1063.121094 850.589844 C 1063.121094 824.699219 1084.109375 803.710938 1110 803.710938 L 1977.179688 803.710938 C 2003.070312 803.710938 2024.058594 824.699219 2024.058594 850.589844 C 2024.058594 876.480469 2003.070312 897.46875 1977.179688 897.46875 "/>
	WHITE FILL -->
			</g>
		</symbol>
	</defs>
</svg>